<?xml version="1.0" encoding="utf-8"?>
<!-- Generator: Adobe Illustrator 24.3.0, SVG Export Plug-In . SVG Version: 6.00 Build 0)  -->
<svg version="1.1" id="Layer_1" xmlns="http://www.w3.org/2000/svg" xmlns:xlink="http://www.w3.org/1999/xlink" x="0px" y="0px"
	 viewBox="0 0 122.9 27" style="enable-background:new 0 0 122.9 27;" xml:space="preserve">
<style type="text/css">
	.st0{fill:#3D3952;}
	.st1{fill-rule:evenodd;clip-rule:evenodd;fill:#3D3952;}
</style>
<g>
	<g>
		<g>
			<path class="st0" d="M73,10L61.2,1.4l-1.1-0.8l-0.8,0.6L47.6,9.7L47.3,10l-0.8,0.6l0.3,0.9l0.1,0.4l4.5,13.9l0.3,0.9h1.4h14.5
				h0.9l0.5-1.3l4.4-13.5l0.4-1.3L73,10z M60.6,3.2l9.2,6.7H58.4L59,8.2L60.6,3.2z M58.3,4.1l-1.4,4.5l-0.4,1.3h-6.1L58.3,4.1z
				 M55.4,13.4L54.9,15l-4.4-3.2H56L55.4,13.4z M52.3,22.7l-3-9.4l4.9,3.6L52.3,22.7z M53.6,24.7l1.7-5.4l0.4-1.3l3.7,2.7l5.6,4l0,0
				C65,24.7,53.6,24.7,53.6,24.7z M67.4,24.2l-6.6-4.8l-4.4-3.2l0.7-2.2l0.7-2.2h13.6L67.4,24.2z"/>
		</g>
	</g>
	<g>
		<g>
			<path class="st0" d="M68.9,27H51.3l-5.4-16.7L60.1,0l14.2,10.3L68.9,27z M52,26.1h16.2l5-15.4L60.1,1.2L47,10.7L52,26.1z
				 M66.5,25.2H53l2.6-7.9L66.5,25.2z M54.3,24.3h9.4L56,18.8L54.3,24.3z M67.6,24.9l-11.8-8.6l1.7-5h14.6L67.6,24.9z M57,16
				l10.3,7.4l3.6-11.2H58.2L57,16z M52.3,24.1L48.4,12l6.4,4.6L52.3,24.1z M50.2,14.5l2.2,6.6l1.4-4.1L50.2,14.5z M55.1,15.7
				L49,11.3h7.5L55.1,15.7z M51.8,12.3l2.8,2l0.6-2H51.8z M71.2,10.4H57.8l2.6-7.9L71.2,10.4z M59,9.5h9.4L60.9,4L59,9.5z
				 M56.8,10.4h-7.9L59.3,3L56.8,10.4z M51.8,9.5h4.3l1.3-4.1L51.8,9.5z"/>
		</g>
	</g>
</g>
<g>
	<g>
		<path class="st1" d="M82.1,12.7c0.6-0.4,1.4-0.6,2.3-0.6c1.4,0,2.5,0.5,3.5,1.5l2-1.9c-0.6-0.8-1.5-1.4-2.5-1.7
			c-1-0.4-2.1-0.6-3.2-0.6c-1.4,0-2.7,0.3-3.8,0.9c-1.2,0.6-2,1.4-2.7,2.5c-0.6,1.1-0.9,2.3-0.9,3.6c0,1.4,0.3,2.6,0.9,3.6
			s1.5,1.9,2.7,2.5s2.4,0.9,3.8,0.9c1,0,1.9-0.1,3-0.4c0.9-0.3,1.8-0.7,2.6-1.3v-5.6h-2.9v4c-0.7,0.4-1.5,0.6-2.5,0.6
			c-0.9,0-1.6-0.2-2.3-0.6c-0.6-0.4-1.2-0.9-1.6-1.5s-0.6-1.4-0.6-2.2c0-0.9,0.2-1.6,0.6-2.3C80.8,13.6,81.4,13.1,82.1,12.7z
			 M96.7,17.7h6.4v-2.5h-6.4v-3h7.1V9.7H93.6v13.6h10.5v-2.5h-7.4V17.7z M122.9,9.7h-2.6l-5.1,8.4l-5.1-8.4h-2.6v13.6h3v-8l4,6.6
			h1.4l4-6.7v8.2h3C122.9,23.4,122.9,9.7,122.9,9.7z M0,12.3h4.3v11h3.2v-11h4.3V9.7H0V12.3z M23.9,15.1h-6.2V9.7h-3.2v13.6h3.2
			v-5.6h6.2v5.6h3.2V9.7h-3.2C23.9,9.7,23.9,15.1,23.9,15.1z M34.4,17.7h6.4v-2.5h-6.4v-3h7.1V9.7H31.3v13.6h10.6v-2.5h-7.4
			L34.4,17.7L34.4,17.7z"/>
	</g>
</g>
</svg>
